HIERARCHY
ROOT Hips
{
	OFFSET -14.64140 90.27770 -84.91600
	CHANNELS 6 Xposition Yposition Zposition Zrotation Xrotation Yrotation
	JOINT Spine
	{
		OFFSET 0.00000 13.20850 -1.60436
		CHANNELS 3 Zrotation Xrotation Yrotation
		JOINT Spine1
		{
			OFFSET 0.00000 8.61716 0.00000
			CHANNELS 3 Zrotation Xrotation Yrotation
			JOINT Spine2
			{
				OFFSET 0.00000 8.61717 0.00000
				CHANNELS 3 Zrotation Xrotation Yrotation
				JOINT Spine3
				{
					OFFSET 0.00000 8.61717 0.00000
					CHANNELS 3 Zrotation Xrotation Yrotation
					JOINT Neck
					{
						OFFSET 0.00000 11.07920 1.10792
						CHANNELS 3 Zrotation Xrotation Yrotation
						JOINT Neck1
						{
							OFFSET 0.00000 7.08032 0.00000
							CHANNELS 3 Zrotation Xrotation Yrotation
							JOINT Head
							{
								OFFSET 0.00000 7.08031 0.00000
								CHANNELS 3 Zrotation Xrotation Yrotation
								End site
								{
									OFFSET 0.00000 0.00000 0.00000
								}
							}
						}
					}
					JOINT RightShoulder
					{
						OFFSET -0.01000 7.91373 5.19711
						CHANNELS 3 Zrotation Xrotation Yrotation
						JOINT RightArm
						{
							OFFSET -18.41580 0.00000 0.00000
							CHANNELS 3 Zrotation Xrotation Yrotation
							JOINT RightForeArm
							{
								OFFSET -29.11090 0.00000 0.00000
								CHANNELS 3 Zrotation Xrotation Yrotation
								JOINT RightHand
								{
									OFFSET -24.65040 0.00000 0.00000
									CHANNELS 3 Zrotation Xrotation Yrotation
									JOINT RightHandThumb1
									{
										OFFSET -5.35114 -0.85590 3.97906
										CHANNELS 3 Zrotation Xrotation Yrotation
										JOINT RightHandThumb2
										{
											OFFSET -4.52789 0.00000 0.00000
											CHANNELS 3 Zrotation Xrotation Yrotation
											JOINT RightHandThumb3
											{
												OFFSET -2.46976 0.00000 0.00000
												CHANNELS 3 Zrotation Xrotation Yrotation
												End site
												{
													OFFSET 0.00000 0.00000 0.00000
												}
											}
										}
									}
									JOINT RightHandIndex1
									{
										OFFSET -14.26970 0.00000 2.88139
										CHANNELS 3 Zrotation Xrotation Yrotation
										JOINT RightHandIndex2
										{
											OFFSET -5.48836 0.00000 0.00000
											CHANNELS 3 Zrotation Xrotation Yrotation
											JOINT RightHandIndex3
											{
												OFFSET -3.01859 0.00000 0.00000
												CHANNELS 3 Zrotation Xrotation Yrotation
												End site
												{
													OFFSET 0.00000 0.00000 0.00000
												}
											}
										}
									}
									JOINT RightHandMiddle1
									{
										OFFSET -14.26970 0.00000 -0.09147
										CHANNELS 3 Zrotation Xrotation Yrotation
										JOINT RightHandMiddle2
										{
											OFFSET -6.17441 0.00000 0.00000
											CHANNELS 3 Zrotation Xrotation Yrotation
											JOINT RightHandMiddle3
											{
												OFFSET -3.56743 0.00000 0.00000
												CHANNELS 3 Zrotation Xrotation Yrotation
												End site
												{
													OFFSET 0.00000 0.00000 0.00000
												}
											}
										}
									}
									JOINT RightHandRing1
									{
										OFFSET -12.69180 0.00000 -3.06433
										CHANNELS 3 Zrotation Xrotation Yrotation
										JOINT RightHandRing2
										{
											OFFSET -5.62556 0.00000 0.00000
											CHANNELS 3 Zrotation Xrotation Yrotation
											JOINT RightHandRing3
											{
												OFFSET -3.56744 0.00000 0.00000
												CHANNELS 3 Zrotation Xrotation Yrotation
												End site
												{
													OFFSET 0.00000 0.00000 0.00000
												}
											}
										}
									}
									JOINT RightHandPinky1
									{
										OFFSET -11.11390 0.00000 -6.03719
										CHANNELS 3 Zrotation Xrotation Yrotation
										JOINT RightHandPinky2
										{
											OFFSET -4.52789 0.00000 0.00000
											CHANNELS 3 Zrotation Xrotation Yrotation
											JOINT RightHandPinky3
											{
												OFFSET -2.46976 0.00000 0.00000
												CHANNELS 3 Zrotation Xrotation Yrotation
												End site
												{
													OFFSET 0.00000 0.00000 0.00000
												}
											}
										}
									}
								}
							}
						}
					}
					JOINT LeftShoulder
					{
						OFFSET 0.01000 7.91373 5.19711
						CHANNELS 3 Zrotation Xrotation Yrotation
						JOINT LeftArm
						{
							OFFSET 18.41580 0.00000 0.00000
							CHANNELS 3 Zrotation Xrotation Yrotation
							JOINT LeftForeArm
							{
								OFFSET 29.11090 0.00000 0.00000
								CHANNELS 3 Zrotation Xrotation Yrotation
								JOINT LeftHand
								{
									OFFSET 24.65040 0.00000 0.00000
									CHANNELS 3 Zrotation Xrotation Yrotation
									JOINT LeftHandThumb1
									{
										OFFSET 5.35114 -0.85590 3.97906
										CHANNELS 3 Zrotation Xrotation Yrotation
										JOINT LeftHandThumb2
										{
											OFFSET 4.52789 0.00000 0.00000
											CHANNELS 3 Zrotation Xrotation Yrotation
											JOINT LeftHandThumb3
											{
												OFFSET 2.46977 0.00000 0.00000
												CHANNELS 3 Zrotation Xrotation Yrotation
												End site
												{
													OFFSET 0.00000 0.00000 0.00000
												}
											}
										}
									}
									JOINT LeftHandIndex1
									{
										OFFSET 14.26970 0.00000 2.88139
										CHANNELS 3 Zrotation Xrotation Yrotation
										JOINT LeftHandIndex2
										{
											OFFSET 5.48836 0.00000 0.00000
											CHANNELS 3 Zrotation Xrotation Yrotation
											JOINT LeftHandIndex3
											{
												OFFSET 3.01859 0.00000 0.00000
												CHANNELS 3 Zrotation Xrotation Yrotation
												End site
												{
													OFFSET 0.00000 0.00000 0.00000
												}
											}
										}
									}
									JOINT LeftHandMiddle1
									{
										OFFSET 14.26970 0.00000 -0.09147
										CHANNELS 3 Zrotation Xrotation Yrotation
										JOINT LeftHandMiddle2
										{
											OFFSET 6.17440 0.00000 0.00000
											CHANNELS 3 Zrotation Xrotation Yrotation
											JOINT LeftHandMiddle3
											{
												OFFSET 3.56744 0.00000 0.00000
												CHANNELS 3 Zrotation Xrotation Yrotation
												End site
												{
													OFFSET 0.00000 0.00000 0.00000
												}
											}
										}
									}
									JOINT LeftHandRing1
									{
										OFFSET 12.69180 0.00000 -3.06433
										CHANNELS 3 Zrotation Xrotation Yrotation
										JOINT LeftHandRing2
										{
											OFFSET 5.62556 0.00000 0.00000
											CHANNELS 3 Zrotation Xrotation Yrotation
											JOINT LeftHandRing3
											{
												OFFSET 3.56744 0.00000 0.00000
												CHANNELS 3 Zrotation Xrotation Yrotation
												End site
												{
													OFFSET 0.00000 0.00000 0.00000
												}
											}
										}
									}
									JOINT LeftHandPinky1
									{
										OFFSET 11.11390 0.00000 -6.03719
										CHANNELS 3 Zrotation Xrotation Yrotation
										JOINT LeftHandPinky2
										{
											OFFSET 4.52789 0.00000 0.00000
											CHANNELS 3 Zrotation Xrotation Yrotation
											JOINT LeftHandPinky3
											{
												OFFSET 2.46976 0.00000 0.00000
												CHANNELS 3 Zrotation Xrotation Yrotation
												End site
												{
													OFFSET 0.00000 0.00000 0.00000
												}
											}
										}
									}
								}
							}
						}
					}
					JOINT pCube4
					{
						OFFSET 0.00000 10.91090 1.10792
						CHANNELS 3 Zrotation Xrotation Yrotation
						End site
						{
							OFFSET 0.00000 0.00000 0.00000
						}
					}
				}
			}
		}
	}
	JOINT RightUpLeg
	{
		OFFSET -9.98441 0.00000 0.00000
		CHANNELS 3 Zrotation Xrotation Yrotation
		JOINT RightLeg
		{
			OFFSET 0.00000 -42.11790 0.00000
			CHANNELS 3 Zrotation Xrotation Yrotation
			JOINT RightFoot
			{
				OFFSET 0.00000 -45.00020 -0.00001
				CHANNELS 3 Zrotation Xrotation Yrotation
				JOINT RightForeFoot
				{
					OFFSET 0.00000 -3.74820 0.00000
					CHANNELS 3 Zrotation Xrotation Yrotation
					JOINT RightToeBase
					{
						OFFSET 0.00000 0.06325 14.43120
						CHANNELS 3 Zrotation Xrotation Yrotation
						End site
						{
							OFFSET 0.00000 0.00000 0.00000
						}
					}
				}
			}
		}
	}
	JOINT LeftUpLeg
	{
		OFFSET 9.98441 0.00000 0.00000
		CHANNELS 3 Zrotation Xrotation Yrotation
		JOINT LeftLeg
		{
			OFFSET 0.00000 -42.11800 0.00000
			CHANNELS 3 Zrotation Xrotation Yrotation
			JOINT LeftFoot
			{
				OFFSET 0.00000 -45.00070 0.00000
				CHANNELS 3 Zrotation Xrotation Yrotation
				JOINT LeftForeFoot
				{
					OFFSET 0.00000 -3.74824 0.00000
					CHANNELS 3 Zrotation Xrotation Yrotation
					JOINT LeftToeBase
					{
						OFFSET 0.00000 0.06325 14.43110
						CHANNELS 3 Zrotation Xrotation Yrotation
						End site
						{
							OFFSET 0.00000 0.00000 0.00000
						}
					}
				}
			}
		}
	}
}
MOTION
Frames: 4
Frame Time: 0.050000
-0.00125640710961002 -0.012570909210749201 0.02021250683580163 -0.014010701576859935 -0.005577473449775855 -0.018428723790635686 4.838123822462332 1.9306295341291264 -2.270379619369822 -0.7071706115332655 3.458086928770883 0.38864980937050275 -0.9472802501435601 -1.643540269518066 2.1528634555963477 -1.0120065706594732 -0.7677129699837183 -0.1176380235064902 1.2747839728762855 13.912167693414105 -2.773416164815198 0.5128606020666987 -0.435410067874276 -6.7232821296339695 1.6415149383737078 -17.339208472513853 -0.6800110923584495 -15.39835229709991 4.755421123327583 -18.816836766413925 80.45516916634038 -12.337977521923506 39.001684900914874 3.29170338440785 4.936241997303047 103.58289004106231 20.05273532705866 -0.9518256865306512 -5.654511858336563 4.567871832130039 -0.15533947940626483 -1.5466924624933076 0.02989103114972045 -0.006100406193499568 -56.24529260546784 -0.042057209393094055 0.012110963144555502 -56.197245563723996 -38.74654429492747 0.00592487597133255 -0.0006250663288242146 -0.009539658745246787 0.005319695839987858 0.012142925672516913 -0.011935717531753352 0.028794519176846518 0.028487264017655025 -36.68843971795215 -0.004735802557004975 0.02128397153696333 0.02737313456288377 -0.004832957936017091 0.0030725223429012927 0.011789669320720751 -0.014212220065778543 -0.020154977697334084 -19.77644852793875 -0.03776986956892063 -0.030476849650567836 0.01772457404099301 0.01303401460239245 -0.048294520223365806 0.04426482882082761 -0.020024320497893235 -0.04850944150045727 24.027079609779648 -0.010570814769238178 0.0416455264488756 28.856878176622814 -0.03342950111879234 0.04608235649176038 28.893333767241664 0.003876721093483916 0.03619947694090899 10.686143882679087 2.4691289547086774 14.81994243010254 -73.09112181307222 20.45576888481319 -11.447939751133669 -28.619413207077933 10.36083709216813 -86.41823438002535 -29.93566780193402 -11.56872674394196 9.158368791925042 -0.44774538719058266 0.06313774837709739 -8.104902575404282 -0.02243056502529422 -0.04963595550111485 44.608381188978555 -0.002910470086114907 0.002692434492930294 44.551963460342556 12.440604400054298 0.03468023479400543 -0.0296988019161265 0.0006377904644426621 -0.040976720501345834 0.0012456800739765194 0.03951640705527638 0.04868458728927925 0.034072784066415875 11.130068745237786 -0.03609998000804895 -0.03584304440818782 -0.006274259150716213 -0.04308416693917823 -0.009592654130344755 -0.03864030420285583 -0.02748276745513267 0.018433640136856572 4.757273325020483 -0.020754567256942837 -0.014706043153435629 -0.012855211512506338 0.005928956968401045 0.04570414936119034 -0.016610556899551113 -0.024663198884068836 0.03257018484815314 -5.573236963740606 -0.01780561961846246 -0.03222147259943923 -6.677120930203788 0.04315687185445205 0.04821800503576372 -6.704198529985202 -0.02997430865481816 0.020232961462674108 -0.04391730164238404 -0.03589894162250796 0.016433938576980858 8.051607878830836 3.4906180441823578 -19.21850347810566 0.017196560515762422 10.410429680435852 0.06157604449524297 -5.6385456144904005 -15.646374094774432 3.1810000310918363 -0.02182289544316883 0.01790281009065222 0.021333634209159152 0.00429284339054331 4.7037718705321065 -0.004051059341349656 12.46055485109742 -8.263401807871496 6.879260964833239 -0.01599810079132136 46.34479151756362 -0.030972002306108477 -4.295001656206049 -14.774327519580837 -3.8627884927927876 -0.041526910714368134 0.00782172700783256 -0.038942170393189236 -0.02826507826134624 -10.697500514037316 0.0400015682064805 
0.021443452562719283 0.03168526431393388 0.036373319745067245 0.01400414534807033 0.04617659153918323 -0.0021187566303008817 4.6222295870176415 2.1433019337597043 -2.182841720680737 -0.7269147629306089 3.4148484820567435 0.4235536097676669 -0.935758043669815 -1.5793152311357033 2.0156693173508935 -0.92282628394076 -0.7578669348759504 -0.10916235985618657 1.206809642260838 13.629377475885377 -2.821147806903392 0.5305096408795126 -0.5409177634142952 -6.852067350004002 1.5337222450746917 -17.47380951603892 -0.6688855087482789 -14.748701392209256 4.5888992457275615 -18.473154195258708 77.65621457195739 -10.837777599732979 37.458622562676155 4.343859817477112 4.574800521463196 102.52255271153545 20.85848263358109 -0.886104698871557 -6.025338526910906 4.5686867258885036 -0.09991551304373024 -1.5741299019412063 0.0420806994969131 -0.0060044193551259855 -56.194223431733235 0.023480726750603965 -0.04625455445695703 -56.24279974013052 -38.75949735939401 -0.03573380648954884 0.02442706308550632 -0.02150309008544526 0.026588156293292874 -0.005345596341778702 0.03144234958937649 -0.04559915670428993 -0.011494005605028307 -36.736297826125266 0.027012053422870077 -0.0052223818659374215 0.03378594013505856 0.041096322040557756 0.006061837207782361 -0.038583927834924626 -0.011734163577801082 0.036569377469926896 -19.7709273996009 0.009129293686048735 -0.04478655393989425 -0.013798512256762745 0.01761301918698955 0.01762158235672883 -0.026352432291758734 -0.023679352542981907 -0.0229876265587341 24.053711634528604 0.011228686119511338 0.002879704969369321 28.8949051207279 -0.04350313031348549 -0.015684124031969227 28.852832368651953 -0.00480759051425625 0.03694606624065488 10.279174230378542 2.44891471199669 14.663810121026922 -71.88860974822747 20.794499914348165 -11.715983338435885 -26.99563363503407 8.832751710371088 -87.75098152852043 -29.32092266599071 -11.010033544370822 8.65658184485935 -0.447869438724454 0.10178011442511045 -8.11902056471868 -0.004735884758813717 0.025096600102813064 44.583880263107 -0.017394163553967668 -0.006233267144336453 44.567673716382316 12.466631577977978 0.03408536399967265 0.0021940047288322435 -0.03868789168434101 0.023378838106576472 0.03419723791702623 -0.004782759903893337 -0.02647626608021904 0.034217885720637074 11.121026609849473 0.01127524101527781 -0.010709168063941002 0.01836974808371113 0.0026579485687214803 0.033930719558489475 0.045295073617876186 -0.018299136620639964 0.00651979857030646 4.803405276345582 0.04618219430935855 -0.03629983330931564 0.013011399317629117 -0.041939676258183345 0.024512966702947205 0.00820480227912025 -0.03521889772422844 0.0187656443768591 -5.555085985111134 -0.011768325106034115 -0.03405861992282353 -6.7376436988016595 -0.016814767139985372 0.025206171469554693 -6.672992314279842 0.006768908325168893 -0.04360506480856446 -0.04321647533661103 -0.021135367642283194 0.04511157746139518 8.079145393990315 3.471964150468357 -19.257210565562836 0.013570052490478619 10.38625876345912 -0.014549040142151748 -5.649559598009453 -15.651572017918705 3.217418474831923 -0.034584424849012516 0.03484427067033313 -0.030823079559875895 -0.012264271660675799 4.6880177198839945 0.012871904782062064 12.491084480982318 -8.20510224396481 6.9133604449122465 -0.01577050618886841 46.42333862299819 -0.020067223636200615 -4.283485115770178 -14.724231184844351 -3.8066247231770562 0.017374319423061224 0.007860381958731337 -0.0034053485920729444 0.030707931469494944 -10.698376586788894 -0.04261978167535482 
0.010169057660484237 0.02520546461660893 0.014229186554976823 0.04171170792600604 -0.022611856132826534 -0.01908696592260464 4.457871216526162 2.327995886912128 -2.0766455515159152 -0.7400469754218103 3.4555815297089785 0.43209661160891366 -0.867173344339033 -1.4279575172894687 1.9407672379506662 -0.8982580555617193 -0.7150182788911231 -0.15972901487335042 1.117761585455307 13.200385009889189 -2.7123701044947186 0.3870845060490196 -0.6833282446239358 -6.948984014785341 1.5030711723844816 -17.499891974216013 -0.6654881027323508 -13.748926312387965 4.357423516141161 -18.050079058224025 74.73961148797194 -8.387093380830793 35.1847663961156 4.75760471733976 3.7500563685020203 101.91828749166564 21.477404871470394 -0.787773607246374 -6.165049570671716 4.541260691367121 -0.10230150477793605 -1.5926526043255496 0.01385176594140334 -0.030015759162080005 -56.264383049753114 -0.012143137859020825 0.00309700713615857 -56.24582443950672 -38.79233256039139 0.005556522226842636 -0.02113525825286217 -0.03360320572803097 0.0011934378682030811 -0.04888349261530016 -0.002368948913499921 0.018065144305950215 -0.04084768457811394 -36.718438342031625 0.015004351666811789 -0.014579778103578297 -0.02187725431612247 0.0006606018071119209 -0.003847782838838173 0.03652982184226884 -0.007335239899125362 0.04212976601388617 -19.79643506592868 0.008904319201572633 0.0018433036187978059 -0.016293651697260835 -0.049112434632882424 -0.022109943424298964 0.002917374136691869 0.0448502019666572 -0.043893854931533534 24.025682834185464 -0.02960436708700388 -0.0066277593624330805 28.868677138731943 -0.045558601830239624 0.011881909064555751 28.836053358711794 0.011248604344337521 -0.023877100320288048 9.719435806361508 2.365585156843344 14.52882432563902 -71.03875926177761 20.770506632219238 -11.665407634345923 -25.567348418381222 7.8584962528835725 -88.2705546234668 -28.4988811957437 -10.330162908119505 7.9277641736782245 -0.46894439089687806 0.11445272914437049 -8.135740789668178 -0.00707286163753021 -0.019742880429113374 44.557851356419626 0.015957190697528167 0.018291369476814968 44.56447570288327 12.420950499761641 -0.03423272406612429 0.020976970725551335 -0.048139009283269536 -0.023366992985434924 0.006284790967310858 -0.01730073634928245 -0.0009181368512272207 -0.03065071842985473 11.118450000603497 -0.048941518823627836 -0.01631594338166 0.043209180808007966 0.01972511294054102 -0.04376358825591786 -0.02469754675637848 -0.012663290236439018 -0.022725645924852926 4.745344098805498 -0.02800582773564823 0.022963092036255444 0.02577311640165934 -0.005271727263849074 -0.025481010962586724 -0.018585830135058146 0.0044040057345578225 -0.03474282194592939 -5.572473888157918 0.04535098730156495 0.03825775685120737 -6.690025032574909 -0.049022429184114154 0.03231851987967703 -6.758410080473725 -0.0390661397644836 0.0071692307160878465 -0.011522788819978643 0.01764873879556854 0.021092437545619885 8.00373948959667 3.519992195498836 -19.245470282150688 0.03507371643359472 10.433229187225002 0.026644164253281942 -5.593768755335655 -15.653082730440378 3.1690941915113577 0.027291026790508356 -0.036660826663314904 -0.016303506313274978 0.00566539124372662 4.716733653793797 0.024456525684080726 12.478856153893366 -8.208183102300254 6.91281948368312 -0.01789064007009993 46.381050748628255 0.030869726201980544 -4.33740573700919 -14.756503162743098 -3.883617009062312 0.02541763240324456 -0.03758056033746218 0.02182716560070174 -0.027260733384368435 -10.74633261435323 0.046707663772562025 
0.019505739048633158 0.01817845063772558 0.03200014787376085 0.031035487035766807 -0.02786079729990301 0.009182185323415963 4.238582025150194 2.544378407774025 -2.082563348034963 -0.6878098459502959 3.5071083009622015 0.4013078811988114 -0.7896765658606635 -1.4198364999760424 1.8443761764270605 -0.7679773684712957 -0.7695556555119382 -0.18114443328793906 0.9404252409328528 12.714285444111466 -2.6656142854618023 0.35538094507793744 -0.761045472224258 -7.07891646430277 1.382381489392929 -17.49738776922967 -0.6403364470302988 -12.713962052241563 4.0541820347174085 -17.572723432488395 71.48197956874714 -5.43850714452467 32.064031980433526 4.268132363146336 2.560877885563489 101.4032203018102 22.10895806803182 -0.763218073999879 -6.3106252954043605 4.536034366718595 -0.16460569764893168 -1.6308766344549073 0.047926139315067104 -0.035223800569555486 -56.19020019359971 0.030542726537457397 0.01447279505027603 -56.27719862633677 -38.78267348644334 0.002397695617083536 -0.005634643885035001 0.0019374823709911965 0.02440093838567268 0.03075793435797519 -0.022992593010844095 0.022989018839219732 -0.007978263832668966 -36.68423180778665 0.016718424304229332 0.04002235831504997 -0.0013739373198966935 -0.010501295105255555 -0.0038959483488531744 -0.004219981350486357 0.027222473705267248 -0.016659562159503784 -19.715790730225947 0.020008223119427467 0.020175619417748893 0.026687077552339858 0.017974110093376943 0.014450571918830186 -0.006154813036440117 0.0038083594675676637 -0.002894627212838791 24.057234815962648 0.005620824942301237 -0.002354896337257299 28.840471231750737 0.008077715965690952 0.03084432836399277 28.830822941517916 0.0008833784227788743 -0.035933399545714735 9.20556144721377 2.269135313340676 14.407439222284186 -70.13417190978953 20.208241790031202 -11.484880080472339 -24.67217672614513 7.135381427817041 -88.75159594230793 -28.06552242956247 -9.884146206847559 7.335185577592491 -0.513415206558973 0.08687792881087172 -8.11426486572067 0.04843903633390452 0.02632484123014978 44.55640323100128 -0.028194566498800228 0.03046003157064675 44.59496113781617 12.495430279978441 0.03707206616009947 0.026592008028539033 -0.023059640677078674 -0.006204950231382216 -0.040403850488651055 -0.041777170522645644 -0.04951089007551464 0.03359637338614867 11.1031455442848 0.005511059350912322 0.011259887358283751 -0.029637037327089312 0.026849311654176516 -0.014653316327072723 0.01854332814213798 -0.012062596137122147 -0.04820408177496169 4.758834116846322 -0.025093924198717237 -0.002242783476097303 0.009796712560953874 -0.020247568215521004 0.010165189181565643 0.044184807187896045 0.021081519242900384 0.004175395854800961 -5.638632490254499 0.02327678563153318 -0.03501864940118341 -6.751034972190461 -0.02729847626656045 0.016738584401336198 -6.707252109543727 -0.048309119642923865 0.01711802040863763 -0.038428557648164864 0.02228085711138912 0.021455895080914236 8.007431451946978 3.4970688389480116 -19.22626367435688 0.03470158567183344 10.355167538320968 0.057019422117561044 -5.607931135909797 -15.660778958249788 3.217790438817563 -0.010289127895095486 -0.048328182698753365 0.01087522080514439 -0.028799345375476088 4.701742999754257 -0.004211020558013369 12.503844080620919 -8.285907493708303 6.858047657373794 -0.02186869252443162 46.34380536102955 0.034150019896904645 -4.3591754736005175 -14.723876481159012 -3.824441714598005 0.0024051576741308846 -0.002581130691270022 -0.011906392124137539 -0.02750782503421294 -10.715869071264388 -0.018032064206722053 
